<svg xmlns="http://www.w3.org/2000/svg" width="106.234" height="64.846" viewBox="0 0 106.234 64.846">
  <g id="Group_14" data-name="Group 14" transform="translate(745.835 -329.042)">
    <path id="Path_33" data-name="Path 33" d="M-672.024,393.888a31.224,31.224,0,0,1-21.327-8.007c-.245.246-.48.473-.709.687a27.427,27.427,0,0,1-19.353,7.32,31.37,31.37,0,0,1-22.922-9.5,31.37,31.37,0,0,1-9.5-22.922,31.371,31.371,0,0,1,9.5-22.922,31.371,31.371,0,0,1,22.922-9.5,31.224,31.224,0,0,1,21.327,8.007c.245-.245.48-.473.709-.687a27.426,27.426,0,0,1,19.353-7.32,31.372,31.372,0,0,1,22.922,9.5,31.37,31.37,0,0,1,9.5,22.922,31.369,31.369,0,0,1-9.5,22.922A31.371,31.371,0,0,1-672.024,393.888Zm-18.642-11.043a27.064,27.064,0,0,0,18.642,7,27.53,27.53,0,0,0,20.12-8.33,27.446,27.446,0,0,0,8.33-20.046,27.442,27.442,0,0,0-8.33-20.046,27.528,27.528,0,0,0-20.12-8.33,23.637,23.637,0,0,0-18.541,8.137,27.378,27.378,0,0,0-5.762,10.982h25.3v4.046h-30.239l.191-1.162a32.976,32.976,0,0,1,6.3-15.006,27.064,27.064,0,0,0-18.642-7,27.532,27.532,0,0,0-20.119,8.33,27.447,27.447,0,0,0-8.33,20.046,27.443,27.443,0,0,0,8.33,20.046,27.526,27.526,0,0,0,20.119,8.33,23.636,23.636,0,0,0,18.541-8.137,27.383,27.383,0,0,0,5.763-10.981h-25.3v-4.047h30.239l-.191,1.162A32.971,32.971,0,0,1-690.666,382.845Z" transform="translate(0)"/>
    <path id="Path_34" data-name="Path 34" d="M-647.975,341.085a30.273,30.273,0,0,0-22.215-9.208,26.343,26.343,0,0,0-18.671,7.052c-.468.436-.913.888-1.348,1.347a30.176,30.176,0,0,0-21.369-8.4,30.273,30.273,0,0,0-22.215,9.208A30.275,30.275,0,0,0-743,363.3a30.273,30.273,0,0,0,9.208,22.215,30.273,30.273,0,0,0,22.215,9.208,26.343,26.343,0,0,0,18.671-7.052c.468-.436.913-.888,1.348-1.347a30.176,30.176,0,0,0,21.37,8.4,30.273,30.273,0,0,0,22.215-9.208,30.275,30.275,0,0,0,9.208-22.215A30.273,30.273,0,0,0-647.975,341.085Zm-1.389,42.968a28.376,28.376,0,0,1-20.826,8.623,27.926,27.926,0,0,1-20-7.893,31.6,31.6,0,0,0,6.675-15.271h-28.061v2.046H-686a28.433,28.433,0,0,1-6.284,12.642q-7.454,8.478-19.292,8.477a28.372,28.372,0,0,1-20.826-8.623,28.287,28.287,0,0,1-8.623-20.753,28.291,28.291,0,0,1,8.623-20.753,28.376,28.376,0,0,1,20.826-8.623,27.926,27.926,0,0,1,20,7.893,31.6,31.6,0,0,0-6.675,15.271h28.061v-2.046h-25.577a28.435,28.435,0,0,1,6.284-12.642q7.453-8.478,19.292-8.477a28.372,28.372,0,0,1,20.826,8.623A28.288,28.288,0,0,1-640.74,363.3,28.291,28.291,0,0,1-649.363,384.053Z" transform="translate(-1.834 -1.835)"/>
  </g>
</svg>
